<svg xmlns="http://www.w3.org/2000/svg" viewBox="0 0 160 110" width="160" height="110">
  <rect width="160" height="110" fill="#0f1117"/>
  <!-- Spirograph pattern - overlapping circles -->
  <g transform="translate(80, 55)">
    <!-- Outer circle -->
    <circle cx="0" cy="0" r="42" fill="none" stroke="#1e3a1e" stroke-width="0.5"/>
    <!-- Spirograph curves -->
    <path d="M42,0 C40,15 28,27 15,32 C0,38 -15,35 -26,24 C-38,12 -40,-5 -32,-18 C-24,-30 -10,-38 5,-38 C20,-38 34,-28 40,-14 C45,0 42,14 34,24 C25,34 12,38 -2,36 C-16,34 -28,24 -33,10 C-38,-4 -34,-20 -24,-30 C-14,-40 0,-44 15,-40 C30,-36 40,-24 42,-10 C44,4 38,18 28,27" fill="none" stroke="#6B8E23" stroke-width="1.2" opacity="0.9"/>
    <path d="M38,15 C30,28 15,36 0,36 C-18,36 -32,24 -36,8 C-40,-8 -32,-24 -18,-32 C-4,-40 14,-38 26,-28 C38,-18 42,-2 38,14" fill="none" stroke="#4a9eff" stroke-width="1" opacity="0.7"/>
    <path d="M0,-42 C14,-40 26,-30 32,-16 C38,-2 34,14 24,24 C14,34 -2,38 -16,34 C-30,30 -38,16 -38,0 C-38,-16 -28,-30 -14,-36 C0,-42 16,-40 28,-30" fill="none" stroke="#ff9f7f" stroke-width="1" opacity="0.6"/>
    <path d="M28,-30 C38,-18 40,0 34,16 C28,30 14,38 -2,38 C-18,38 -32,28 -37,12 C-42,-4 -36,-22 -24,-32 C-12,-42 4,-44 18,-38 C32,-32 40,-18 40,-2" fill="none" stroke="#b388ff" stroke-width="0.8" opacity="0.5"/>
    <!-- Center dot -->
    <circle cx="0" cy="0" r="2" fill="#fff" opacity="0.5"/>
  </g>
  <!-- Label -->
  <text x="80" y="107" text-anchor="middle" fill="#555" font-size="8" font-family="monospace">Spirograph Generator</text>
</svg>
